# xmcd CD database file
#
# Track frame offsets:
#	150
#	10900
#	64703
#	87011
#	149332
#	183337
#	187633
#
# Disc length: 4235 seconds
#
# Revision: 0
# Processed by: cddbd v1.5.2PL0 Copyright (c) Steve Scherf et al.
# Submitted via: CDex 1.70beta2
#
DISCID=4e108907
DTITLE=John Coltrane quintet with Eric Dolphy - Complete 1961 Copenhagen concert
DYEAR=2009
DGENRE=Jazz
TTITLE0=Announcement by Norman Granz
TTITLE1=Delilah
TTITLE2=Every time you say goodbye
TTITLE3=Impressions
TTITLE4=Naima
TTITLE5=My favorite things (false starts) into announcement by John Coltrane 
TTITLE6=My favorite things
EXTD=YEAR: 2009
EXTT0=
EXTT1=
EXTT2=
EXTT3=
EXTT4=
EXTT5=
EXTT6=
PLAYORDER=
